<?xml version="1.0" encoding="utf-8"?>
<!-- Generator: Adobe Illustrator 16.0.0, SVG Export Plug-In . SVG Version: 6.00 Build 0)  -->
<!DOCTYPE svg PUBLIC "-//W3C//DTD SVG 1.1//EN" "http://www.w3.org/Graphics/SVG/1.1/DTD/svg11.dtd">
<svg version="1.1" id="Layer_1" xmlns="http://www.w3.org/2000/svg" xmlns:xlink="http://www.w3.org/1999/xlink" x="0px" y="0px"
	 width="387.939px" height="173.717px" viewBox="0 0 387.939 173.717" enable-background="new 0 0 387.939 173.717"
	 xml:space="preserve">
<g>
	<path fill="#272661" d="M12.26,37.314h10.409v56.474H12.26V37.314z M23.01,28.598H11.919V17.623H23.01V28.598z"/>
	<path fill="#272661" d="M41.12,93.788V42.179c0.452-0.221,10.865-5.884,24.104-5.884c14.259,0,22.749,7.923,22.749,21.052v36.441
		H77.56V56.669c0-5.322-1.471-10.754-12.788-10.754c-5.091,0-9.735,0.908-13.245,2.038v45.835H41.12z"/>
	<path fill="#272661" d="M118.193,46.03v32.82c0,4.865,3.168,6.678,8.49,6.678c2.942,0,5.091-0.793,6.562-1.701v9.282
		c-2.264,0.904-4.865,1.587-8.038,1.587c-3.621,0-17.316-1.245-17.316-16.528V46.03H98.05v-8.716h9.841v-16.86h10.302v16.86h15.052
		v8.716H118.193z"/>
	<path fill="#272661" d="M259.885,37.314v32.71c0,15.73-8.711,24.782-23.878,24.782c-15.168,0-23.879-9.052-23.879-24.782v-32.71
		h10.297v33.499c0,10.302,4.188,14.826,13.582,14.826c9.282,0,13.47-4.523,13.47-14.826V37.314H259.885z"/>
	<path fill="#272661" d="M316.704,81.678v9.849c-4.869,1.924-10.527,3.169-16.639,3.169c-17.201,0-26.595-10.413-26.595-29.201
		s9.394-29.085,26.595-29.085c6.111,0,11.77,1.245,16.639,3.168v9.846c-4.528-2.149-9.85-3.735-15.733-3.735
		c-8.602,0-16.635,2.49-16.635,19.807c0,17.432,8.033,19.807,16.635,19.807C306.854,85.302,312.176,83.832,316.704,81.678"/>
	<path fill="#272661" d="M377.366,60.515v33.273h-10.413V60.174c0-12.332-6.794-13.808-12.678-13.808
		c-5.429,0-10.409,1.36-13.918,2.716v44.705h-10.413V15.811h10.413v23.427c4.072-1.582,9.168-2.827,14.938-2.827
		C369.327,36.411,377.366,45.126,377.366,60.515"/>
	<path fill="#F69321" d="M18.742,157.923h-7.081v-35.169c0.386-0.155,8.393-3.851,18.704-3.851v6.465
		c-4.542,0.079-8.618,0.846-11.623,1.617V157.923z"/>
	<path fill="#F69321" d="M42.91,136.375h19.7c-0.385-4.467-2.229-11.157-9.85-11.157C46.295,125.218,43.526,128.143,42.91,136.375
		 M67.073,149.686v6.395c-3.616,1.537-8.158,2.534-13.621,2.534c-8.078,0-17.698-3.386-17.698-19.391c0-5.002,0-20.32,17.007-20.32
		c10.311,0,16.931,7.311,16.931,18.548c0,1.848-0.08,3.616-0.231,5.309H42.985c1.077,8.007,5.773,9.775,10.851,9.775
		C59.531,152.535,63.842,151.383,67.073,149.686"/>
	<rect x="78.309" y="104.896" fill="#F69321" width="7.081" height="53.026"/>
	<path fill="#F69321" d="M124.716,138.759c0-11.929-5.233-13.541-11.007-13.541c-5.769,0-11.002,1.612-11.002,13.541
		c0,11.933,5.233,13.546,11.002,13.546C119.483,152.305,124.716,150.691,124.716,138.759 M131.797,138.759
		c0,16.314-9.851,19.78-18.088,19.78c-8.232,0-18.083-3.466-18.083-19.78c0-16.311,9.851-19.775,18.083-19.775
		C121.946,118.983,131.797,122.448,131.797,138.759"/>
	<path fill="#F69321" d="M168.813,149.686v6.7c-3.31,1.308-7.156,2.153-11.312,2.153c-11.698,0-18.083-7.081-18.083-19.855
		s6.385-19.78,18.083-19.78c4.156,0,8.003,0.852,11.312,2.157v6.691c-3.08-1.458-6.695-2.534-10.696-2.534
		c-5.849,0-11.312,1.692-11.312,13.466c0,11.853,5.464,13.47,11.312,13.47C162.118,152.153,165.734,151.152,168.813,149.686"/>
	<path fill="#F69321" d="M200.828,139.76c-1.848-0.305-4.156-0.461-6.695-0.461c-3.31,0-11.392,1.002-11.392,6.466
		c0,4.387,3.155,6.54,9.239,6.54c5.845,0,8.849-2.078,8.849-6.311V139.76z M207.909,134.988v11.082
		c0,2.924-1.157,12.469-15.93,12.469c-15.088,0-16.24-9.7-16.24-12.7c0-7.616,6.771-12.158,18.083-12.158
		c2.464,0,4.777,0.155,7.006,0.461c-0.311-6.311-3.08-9.079-10.621-9.079c-4.387,0-8.158,1.076-10.617,1.923v-6.004
		c2.845-1.077,6.691-2.078,11.618-2.078C201.905,118.903,207.909,124.597,207.909,134.988"/>
	<path fill="#F69321" d="M227.223,125.443v22.323c0,3.306,2.158,4.538,5.773,4.538c2.004,0,3.466-0.541,4.467-1.152v6.31
		c-1.542,0.616-3.31,1.077-5.468,1.077c-2.459,0-11.772-0.846-11.772-11.237v-21.858h-6.696v-5.924h6.696v-11.468h7v11.468h10.24
		v5.924H227.223z"/>
	<path fill="#F69321" d="M247.008,119.52h7.082v38.403h-7.082V119.52z M254.315,113.595h-7.542v-7.461h7.542V113.595z"/>
	<path fill="#F69321" d="M293.335,138.759c0-11.929-5.233-13.541-11.007-13.541c-5.77,0-11.006,1.612-11.006,13.541
		c0,11.933,5.236,13.546,11.006,13.546C288.101,152.305,293.335,150.691,293.335,138.759 M300.416,138.759
		c0,16.314-9.85,19.78-18.088,19.78c-8.232,0-18.083-3.466-18.083-19.78c0-16.311,9.851-19.775,18.083-19.775
		C290.566,118.983,300.416,122.448,300.416,138.759"/>
	<path fill="#F69321" d="M309.419,157.923v-35.094c0.312-0.155,7.393-4.001,16.392-4.001c9.7,0,15.468,5.389,15.468,14.312v24.782
		h-7.075V132.68c0-3.616-1.001-7.312-8.699-7.312c-3.465,0-6.619,0.615-9.003,1.387v31.168H309.419z"/>
	<path fill="#F69321" d="M375.066,121.441v6.085c-2.845-1.312-6.079-2.313-9.466-2.313c-6.234,0-7.621,2.313-7.621,4.927
		c0,6.159,19.625,2.615,19.625,17.087c0,5.309-3.771,11.312-14.312,11.312c-4.692,0-8.389-1.232-11.082-2.694v-6.39
		c2.464,1.388,6.004,2.85,10.771,2.85c5.237,0,7.542-2.233,7.542-4.772c0-8.618-19.546-3.922-19.546-17.161
		c0-5.539,3.616-11.468,13.776-11.468C368.45,118.903,371.986,119.904,375.066,121.441"/>
	<g>
		<defs>
			<path id="SVGID_1_" d="M158.028,39.765c-14.445,8.06-19.611,26.303-11.547,40.739c8.06,14.446,26.303,19.617,40.739,11.551
				c-12.274,6.855-27.774,2.46-34.633-9.814c-6.851-12.274-2.455-27.778,9.819-34.633c12.274-6.846,27.778-2.459,34.629,9.815
				c6.859,12.274,2.46,27.783-9.814,34.632c14.444-8.059,19.611-26.306,11.548-40.743c-5.482-9.819-15.673-15.353-26.171-15.353
				C167.657,35.958,162.65,37.181,158.028,39.765"/>
		</defs>
		<clipPath id="SVGID_2_">
			<use xlink:href="#SVGID_1_"  overflow="visible"/>
		</clipPath>
		
			<linearGradient id="SVGID_3_" gradientUnits="userSpaceOnUse" x1="-88.8" y1="517.3369" x2="-86.5309" y2="517.3369" gradientTransform="matrix(-3.8754 21.9783 21.9783 3.8754 -11537.9082 -6.772)">
			<stop  offset="0" style="stop-color:#F69321"/>
			<stop  offset="1" style="stop-color:#EF4137"/>
		</linearGradient>
		<polygon clip-path="url(#SVGID_2_)" fill="url(#SVGID_3_)" points="217.802,37.89 204.767,111.822 127.445,98.188 140.481,24.256 
					"/>
	</g>
	<g>
		<defs>
			<path id="SVGID_4_" d="M194.483,78.953c0.021-0.04,0.049-0.08,0.07-0.12C194.532,78.873,194.505,78.913,194.483,78.953
				 M150.766,52.867c-7.205,12.075-3.257,27.699,8.818,34.903c12.074,7.2,27.694,3.257,34.899-8.817
				c-6.125,10.263-19.404,13.616-29.667,7.492c-10.262-6.124-13.616-19.403-7.492-29.666c6.124-10.262,19.403-13.617,29.666-7.493
				c10.218,6.097,13.59,19.302,7.563,29.546c7.107-12.057,3.143-27.601-8.889-34.78c-4.085-2.441-8.583-3.598-13.019-3.603
				C163.979,40.451,155.529,44.882,150.766,52.867"/>
		</defs>
		<clipPath id="SVGID_5_">
			<use xlink:href="#SVGID_4_"  overflow="visible"/>
		</clipPath>
		
			<linearGradient id="SVGID_6_" gradientUnits="userSpaceOnUse" x1="-89.0286" y1="517.3223" x2="-86.7596" y2="517.3223" gradientTransform="matrix(-3.8975 22.104 22.104 3.8975 -11604.5254 -7.541)">
			<stop  offset="0" style="stop-color:#024A74"/>
			<stop  offset="1" style="stop-color:#282560"/>
		</linearGradient>
		<polygon clip-path="url(#SVGID_5_)" fill="url(#SVGID_6_)" points="210.984,42.096 199.906,104.91 134.238,93.332 145.315,30.517 
					"/>
	</g>
	<g>
		<defs>
			<path id="SVGID_7_" d="M194.261,66.223c0-0.04,0-0.085,0-0.124C194.261,66.138,194.261,66.183,194.261,66.223 M150.988,65.598
				c-0.168,11.946,9.381,21.774,21.327,21.947c11.946,0.169,21.774-9.376,21.947-21.322c-0.15,10.151-8.503,18.273-18.659,18.123
				c-10.151-0.146-18.265-8.499-18.123-18.65c0.146-10.161,8.499-18.274,18.655-18.128c10.111,0.147,18.207,8.433,18.127,18.531
				c0.102-11.894-9.42-21.65-21.327-21.823c-0.106,0-0.213,0-0.319,0C160.811,44.275,151.16,53.753,150.988,65.598"/>
		</defs>
		<clipPath id="SVGID_8_">
			<use xlink:href="#SVGID_7_"  overflow="visible"/>
		</clipPath>
		
			<linearGradient id="SVGID_9_" gradientUnits="userSpaceOnUse" x1="-86.5076" y1="519.2139" x2="-84.2394" y2="519.2139" gradientTransform="matrix(-3.3123 18.7852 18.7852 3.3123 -9863.71 -50.1123)">
			<stop  offset="0" style="stop-color:#28A8E0"/>
			<stop  offset="1" style="stop-color:#177196"/>
		</linearGradient>
		<polygon clip-path="url(#SVGID_8_)" fill="url(#SVGID_9_)" points="201.794,45.583 193.052,95.161 143.392,86.401 152.131,36.827 
					"/>
	</g>
</g>
</svg>
